<svg width="32" height="32" xmlns="http://www.w3.org/2000/svg" xmlns:xlink="http://www.w3.org/1999/xlink"><defs><path id="a" d="M0 .006h17.994v17.992H0z"/></defs><g fill="none" fill-rule="evenodd"><path d="M15.889 0C7.128 0 0 7.128 0 15.889c0 8.76 7.128 15.888 15.889 15.888 8.76 0 15.888-7.128 15.888-15.888C31.777 7.128 24.65 0 15.89 0z" fill="#D93175" fill-rule="nonzero"/><g transform="translate(7 7)"><mask id="b" fill="#fff"><use xlink:href="#a"/></mask><path d="M8.997.006c-2.443 0-2.75.01-3.71.054-.957.043-1.611.196-2.183.418A4.41 4.41 0 0 0 1.51 1.516 4.41 4.41 0 0 0 .472 3.109C.25 3.682.098 4.336.054 5.293.01 6.253 0 6.56 0 9.003c0 2.443.01 2.75.054 3.71.044.957.196 1.611.418 2.183A4.41 4.41 0 0 0 1.51 16.49c.5.5 1.002.808 1.594 1.038.572.222 1.226.374 2.184.418.96.044 1.266.054 3.71.054 2.443 0 2.749-.01 3.709-.054.957-.044 1.611-.196 2.184-.418a4.41 4.41 0 0 0 1.593-1.038c.5-.5.808-1.002 1.038-1.594.222-.572.375-1.226.418-2.184.044-.96.054-1.266.054-3.71 0-2.443-.01-2.749-.054-3.709-.044-.957-.196-1.611-.418-2.184a4.41 4.41 0 0 0-1.038-1.593A4.41 4.41 0 0 0 14.891.478C14.318.256 13.664.104 12.707.06c-.96-.044-1.266-.054-3.71-.054zm0 1.62c2.402 0 2.687.01 3.636.053.877.04 1.353.187 1.67.31.42.163.72.358 1.035.673.315.315.51.615.673 1.035.123.317.27.793.31 1.67.043.949.052 1.234.052 3.636s-.009 2.687-.052 3.635c-.04.878-.187 1.354-.31 1.671-.163.42-.358.72-.673 1.035-.315.314-.615.51-1.035.673-.317.123-.793.27-1.67.31-.949.043-1.233.052-3.636.052-2.402 0-2.687-.01-3.635-.053-.878-.04-1.354-.186-1.671-.31a2.787 2.787 0 0 1-1.035-.672 2.788 2.788 0 0 1-.673-1.035c-.123-.317-.27-.793-.31-1.67-.043-.95-.052-1.234-.052-3.636s.01-2.687.053-3.636c.04-.877.186-1.353.31-1.67.163-.42.358-.72.672-1.035.315-.315.615-.51 1.035-.673.317-.123.793-.27 1.67-.31.95-.043 1.234-.052 3.636-.052z" fill="#FFF" mask="url(#b)"/></g><path d="M16 18.986a2.986 2.986 0 1 1 0-5.972 2.986 2.986 0 0 1 0 5.972zm0-7.586a4.6 4.6 0 1 0 0 9.2 4.6 4.6 0 0 0 0-9.2zM21.9 11.2a1.1 1.1 0 1 1-2.2 0 1.1 1.1 0 0 1 2.2 0" fill="#FFF"/></g></svg>