<svg width="32" height="32" viewBox="0 0 32 32" xmlns="http://www.w3.org/2000/svg" xmlns:xlink="http://www.w3.org/1999/xlink"><title>Twitter</title><defs><path id="a" d="M16 32H0V0h32v32H16z"/></defs><g fill="none" fill-rule="evenodd"><mask id="b" fill="#fff"><use xlink:href="#a"/></mask><path d="M32 16c0 8.837-7.164 16-16 16-8.837 0-16-7.163-16-16S7.163 0 16 0c8.836 0 16 7.163 16 16" fill="#0084B4" mask="url(#b)"/><path d="M24.023 11.809a6.588 6.588 0 0 1-1.888.518 3.293 3.293 0 0 0 1.446-1.819 6.589 6.589 0 0 1-2.089.797 3.289 3.289 0 0 0-5.601 2.998 9.33 9.33 0 0 1-6.777-3.436 3.288 3.288 0 0 0 1.018 4.391 3.29 3.29 0 0 1-1.49-.41v.04a3.288 3.288 0 0 0 2.638 3.225 3.203 3.203 0 0 1-.867.116c-.211 0-.418-.02-.618-.058a3.29 3.29 0 0 0 3.07 2.282 6.595 6.595 0 0 1-4.082 1.408 6.74 6.74 0 0 1-.784-.045 9.311 9.311 0 0 0 5.04 1.477c6.047 0 9.353-5.01 9.353-9.357 0-.142-.003-.284-.009-.425a6.652 6.652 0 0 0 1.64-1.702" fill="#FFF"/></g></svg>