<svg width="32" height="32" viewBox="0 0 32 32" xmlns="http://www.w3.org/2000/svg" xmlns:xlink="http://www.w3.org/1999/xlink"><title>facebook</title><defs><path id="a" d="M16 32h16V0H0v32z"/></defs><g fill="none" fill-rule="evenodd"><mask id="b" fill="#fff"><use xlink:href="#a"/></mask><path d="M16 32C7.164 32 0 24.837 0 16S7.164 0 16 0c8.837 0 16 7.163 16 16s-7.163 16-16 16z" fill="#3B5998" mask="url(#b)"/><path d="M12.145 13.291h1.654v-1.607c0-.71.017-1.802.532-2.48C14.874 8.489 15.618 8 16.9 8c2.086 0 2.965.298 2.965.298l-.414 2.45s-.69-.2-1.332-.2c-.643 0-1.22.231-1.22.874v1.869h2.638l-.184 2.394H16.9v8.316h-3.1v-8.316h-1.654v-2.394z" fill="#FFF"/></g></svg>