<svg width="32" height="32" viewBox="0 0 32 32" xmlns="http://www.w3.org/2000/svg"><title>LinkedIN</title><g fill="none" fill-rule="evenodd"><path d="M.24 16C.24 7.163 7.296 0 16 0s15.76 7.163 15.76 16S24.704 32 16 32 .24 24.837.24 16z" fill="#007BB6"/><path d="M11.983 12.645H8.416V23.54h3.567zm.235-3.37c-.023-1.068-.775-1.882-1.995-1.882-1.22 0-2.017.814-2.017 1.882 0 1.046.774 1.883 1.971 1.883h.023c1.243 0 2.018-.837 2.018-1.883zm12.627 8.018c0-3.346-1.76-4.904-4.106-4.904-1.894 0-2.742 1.058-3.215 1.8v-1.543h-3.567c.047 1.022 0 10.894 0 10.894h3.567v-6.084c0-.326.023-.65.117-.884.258-.65.845-1.324 1.83-1.324 1.292 0 1.808 1 1.808 2.463v5.829h3.566v-6.247z" fill="#FFF"/></g></svg>